<svg width="2000" height="2000" viewBox="0 0 2000 2000" fill="none" xmlns="http://www.w3.org/2000/svg">
<g clip-path="url(#clip0_1_7)">
<g filter="url(#filter0_b_1_7)">
<rect width="2000" height="2000" fill="url(#paint0_linear_1_7)" fill-opacity="0.5"/>
<rect width="2000" height="2000" fill="url(#paint1_linear_1_7)" fill-opacity="0.5"/>
</g>
<path d="M250 250V1750H1750V250H250ZM314.937 497.438C408.813 482.875 482.875 408.812 497.436 314.939C497.937 311.69 502.062 311.69 502.56 314.939C517.123 408.815 591.186 482.878 685.059 497.438C688.308 497.939 688.308 502.064 685.059 502.563C591.183 517.126 517.12 591.188 502.56 685.062C502.059 688.311 497.934 688.311 497.436 685.062C482.872 591.186 408.81 517.123 314.937 502.563C311.688 502.062 311.688 497.937 314.937 497.438ZM1169.19 1481.69L1106.69 1544.19C1094.5 1556.37 1078.5 1562.5 1062.5 1562.5C1046.5 1562.5 1030.5 1556.37 1018.31 1544.19C993.874 1519.75 993.874 1480.25 1018.31 1455.81L1080.81 1393.31C1105.25 1368.88 1144.75 1368.88 1169.18 1393.31C1193.63 1417.75 1193.63 1457.25 1169.19 1481.69ZM1231.69 1169.19L1169.19 1231.69C1157 1243.87 1141 1250 1125 1250C1109 1250 1093 1243.87 1080.81 1231.69C1056.38 1207.25 1056.38 1167.75 1080.81 1143.31L1143.31 1080.81C1167.75 1056.38 1207.25 1056.38 1231.69 1080.81C1256.13 1105.25 1256.13 1144.75 1231.69 1169.19ZM1544.19 1231.69L1481.69 1294.19C1469.5 1306.37 1453.5 1312.5 1437.5 1312.5C1421.5 1312.5 1405.5 1306.37 1393.31 1294.19C1368.87 1269.75 1368.87 1230.25 1393.31 1205.81L1455.81 1143.31C1480.25 1118.88 1519.75 1118.88 1544.18 1143.31C1568.63 1167.75 1568.63 1207.25 1544.19 1231.69ZM1625 874.999C1590.5 874.999 1562.5 847 1562.5 812.5C1562.5 750.062 1516 699.25 1458.94 699.25C1401.81 699.25 1355.38 750.062 1355.38 812.5C1355.38 847 1327.38 874.999 1292.88 874.999C1258.32 874.999 1230.38 847 1230.38 812.5C1230.38 683.438 1329.57 578.562 1452.57 574.938C1432.07 487.938 1359.38 423.124 1272.32 423.124C1180.38 423.124 1104.26 495.25 1088.94 589.562C1120.38 602.749 1149.32 622.75 1172.94 649.75C1195.63 675.751 1193 715.187 1167 737.936C1141.07 760.624 1101.57 757.999 1078.82 731.998C1053.38 702.936 1016.75 690.936 980.881 699.748C924.443 713.811 889.507 775.311 903.194 836.872C910.694 870.561 889.445 903.936 855.757 911.436C851.195 912.435 846.631 912.874 842.131 912.874C813.505 912.874 787.694 893.125 781.193 863.937C776.632 843.561 775.694 823.249 776.318 803.187C754.882 808.498 734.942 820.498 720.068 839.623C681.944 888.687 688.381 961.249 734.444 1001.44C760.507 1024.12 763.193 1063.62 740.57 1089.62C728.195 1103.81 710.884 1111.06 693.382 1111.06C678.818 1111.06 664.193 1106 652.381 1095.68C624.194 1071.18 604.067 1040.5 590.444 1007.37C539.069 1017.5 493.633 1049 465.443 1098.06C411.443 1192.12 444.007 1330.31 533.819 1388C562.82 1406.68 571.258 1445.37 552.569 1474.37C540.631 1493 520.507 1503.12 499.943 1503.12C488.38 1503.12 476.632 1499.93 466.193 1493.18C319.006 1398.56 269.069 1189.12 357.068 1035.81C404.192 953.81 484.193 898.498 573.13 882.748C578.254 840.124 593.816 798.373 621.443 762.81C668.942 701.872 742.694 670.686 816.13 676.123C847.067 628.999 893.506 592.686 950.693 578.436C955.568 577.249 960.505 576.748 965.38 575.872C987.88 419.122 1116.32 298.123 1272.32 298.123C1440.44 298.123 1576.94 438.435 1582.82 612.874C1645.69 655.375 1687.5 728.811 1687.5 812.5C1687.5 847 1659.5 874.999 1625 874.999Z" fill="white" fill-opacity="0.6"/>
</g>
<defs>
<filter id="filter0_b_1_7" x="-1122" y="-1122" width="4244" height="4244" filterUnits="userSpaceOnUse" color-interpolation-filters="sRGB">
<feFlood flood-opacity="0" result="BackgroundImageFix"/>
<feGaussianBlur in="BackgroundImageFix" stdDeviation="561"/>
<feComposite in2="SourceAlpha" operator="in" result="effect1_backgroundBlur_1_7"/>
<feBlend mode="normal" in="SourceGraphic" in2="effect1_backgroundBlur_1_7" result="shape"/>
</filter>
<linearGradient id="paint0_linear_1_7" x1="1000" y1="0" x2="1000" y2="2000" gradientUnits="userSpaceOnUse">
<stop stop-color="#23074D"/>
<stop offset="0.0001" stop-color="#5110B3"/>
</linearGradient>
<linearGradient id="paint1_linear_1_7" x1="1000" y1="0" x2="1000" y2="2000" gradientUnits="userSpaceOnUse">
<stop stop-color="#606C88" stop-opacity="0"/>
<stop offset="0.0001" stop-color="#606C88"/>
</linearGradient>
<clipPath id="clip0_1_7">
<rect width="2000" height="2000" fill="white"/>
</clipPath>
</defs>
</svg>
