<svg width="1024" height="1024" viewBox="0 0 1024 1024" fill="none" xmlns="http://www.w3.org/2000/svg">
<g clip-path="url(#clip0_10_2)">
<g filter="url(#filter0_b_10_2)">
<rect x="-488" y="-488" width="2000" height="2000" fill="url(#paint0_linear_10_2)" fill-opacity="0.5"/>
<rect x="-488" y="-488" width="2000" height="2000" fill="url(#paint1_linear_10_2)" fill-opacity="0.5"/>
</g>
<g filter="url(#filter1_d_10_2)">
<path d="M824.5 449.5C807.25 449.5 793.25 435.5 793.25 418.25C793.25 387.031 770 361.625 741.469 361.625C712.906 361.625 689.689 387.031 689.689 418.25C689.689 435.5 675.689 449.5 658.439 449.5C641.158 449.5 627.189 435.5 627.189 418.25C627.189 353.719 676.783 301.281 738.283 299.469C728.034 255.969 691.689 223.562 648.159 223.562C602.19 223.562 564.128 259.625 556.471 306.781C572.19 313.374 586.659 323.375 598.471 336.875C609.815 349.875 608.502 369.594 595.502 380.968C582.534 392.312 562.783 390.999 551.409 377.999C538.69 363.468 520.377 357.468 502.44 361.874C474.222 368.905 456.753 399.655 463.597 430.436C467.347 447.28 456.723 463.968 439.878 467.718C437.598 468.217 435.315 468.437 433.065 468.437C418.752 468.437 405.847 458.562 402.597 443.968C400.316 433.78 399.847 423.625 400.159 413.593C389.441 416.249 379.471 422.249 372.034 431.812C352.972 456.343 356.19 492.624 379.222 512.718C392.253 524.061 393.597 543.812 382.285 556.811C376.098 563.905 367.442 567.529 358.691 567.529C351.409 567.529 344.097 564.998 338.19 559.842C324.097 547.591 314.034 532.249 307.222 515.686C281.535 520.748 258.816 536.498 244.722 561.03C217.722 608.062 234.003 677.155 278.91 705.998C293.41 715.342 297.629 734.686 288.285 749.186C282.315 758.498 272.253 763.561 261.972 763.561C256.19 763.561 250.316 761.967 245.097 758.592C171.503 711.279 146.535 606.56 190.534 529.905C214.096 488.905 254.097 461.249 298.565 453.374C301.127 432.062 308.908 411.187 322.722 393.405C346.471 362.936 383.347 347.343 420.065 350.062C435.534 326.499 458.753 308.343 487.347 301.218C489.784 300.625 492.252 300.374 494.69 299.936C505.94 221.561 570.159 161.062 648.159 161.062C732.222 161.062 800.472 231.217 803.409 318.437C834.846 339.688 855.752 376.405 855.752 418.25C855.75 435.5 841.75 449.5 824.5 449.5Z" fill="#D9D9D9"/>
<path d="M596.593 752.844L565.344 784.093C559.25 790.187 551.25 793.25 543.25 793.25C535.25 793.25 527.249 790.187 521.155 784.093C508.937 771.875 508.937 752.125 521.155 739.906L552.405 708.657C564.623 696.438 584.374 696.438 596.592 708.657C608.813 720.875 608.813 740.625 596.593 752.844Z" fill="#D9D9D9"/>
<path d="M627.844 596.593L596.595 627.843C590.501 633.937 582.501 637 574.5 637C566.501 637 558.5 633.937 552.406 627.843C540.188 615.625 540.188 595.874 552.406 583.656L583.656 552.406C595.874 540.188 615.625 540.188 627.843 552.406C640.063 564.625 640.062 584.375 627.844 596.593Z" fill="#D9D9D9"/>
<path d="M784.093 627.844L752.844 659.094C746.75 665.187 738.75 668.25 730.75 668.25C722.75 668.25 714.749 665.187 708.655 659.094C696.437 646.875 696.437 627.125 708.655 614.907L739.905 583.657C752.123 571.439 771.874 571.439 784.092 583.657C796.313 595.875 796.313 615.625 784.093 627.844Z" fill="#D9D9D9"/>
<path d="M169.468 260.719C216.406 253.437 253.438 216.406 260.718 169.47C260.968 167.845 263.031 167.845 263.28 169.47C270.562 216.408 307.593 253.439 354.529 260.719C356.154 260.97 356.154 263.032 354.529 263.281C307.591 270.563 270.56 307.594 263.28 354.531C263.029 356.155 260.967 356.155 260.718 354.531C253.436 307.593 216.405 270.562 169.468 263.281C167.844 263.031 167.844 260.968 169.468 260.719Z" fill="#D9D9D9"/>
<path d="M400.144 414.112C399.864 423.975 400.355 433.956 402.597 443.968C405.847 458.562 418.752 468.437 433.065 468.437C435.315 468.437 437.598 468.217 439.878 467.718L400.144 414.112ZM400.144 414.112C400.189 414.101 400.234 414.09 400.279 414.079L400.159 413.593L399.659 413.578C399.658 413.625 399.656 413.673 399.655 413.721L400.144 414.112ZM288.285 749.186C297.629 734.686 293.41 715.342 278.91 705.998L288.285 749.186ZM288.285 749.186C282.315 758.498 272.253 763.561 261.972 763.561C256.19 763.561 250.316 761.967 245.097 758.592C171.503 711.279 146.535 606.56 190.534 529.905C214.096 488.905 254.097 461.249 298.565 453.374L288.285 749.186ZM169.544 261.213L169.545 261.213C216.698 253.898 253.898 216.698 261.212 169.546L261.212 169.546C261.301 168.97 261.676 168.751 261.999 168.751C262.323 168.751 262.697 168.969 262.786 169.545L262.786 169.546C270.101 216.7 307.301 253.9 354.453 261.213L354.453 261.213C355.029 261.302 355.248 261.677 355.248 262.001C355.248 262.324 355.03 262.699 354.454 262.787L354.453 262.787C307.299 270.102 270.099 307.302 262.786 354.454L262.786 354.455C262.697 355.031 262.322 355.249 261.998 355.249C261.675 355.249 261.3 355.031 261.212 354.455L261.212 354.454C253.897 307.301 216.697 270.101 169.545 262.787L169.544 262.787C168.968 262.698 168.75 262.323 168.75 262C168.75 261.676 168.968 261.302 169.544 261.213ZM738.298 299.969L738.91 299.95L738.77 299.354C728.475 255.661 691.953 223.062 648.159 223.062C601.912 223.062 563.668 259.337 555.978 306.701L555.915 307.09L556.278 307.242C571.931 313.808 586.335 323.765 598.094 337.204C609.257 349.997 607.965 369.399 595.173 380.592C582.413 391.754 562.978 390.463 551.785 377.67L551.409 377.999L551.785 377.67C538.949 363.005 520.449 356.935 502.321 361.388L502.32 361.389C473.804 368.494 456.214 399.534 463.109 430.545L463.597 430.436L463.109 430.545C466.799 447.118 456.346 463.539 439.771 467.229C437.529 467.72 435.283 467.937 433.065 467.937C418.981 467.937 406.283 458.22 403.085 443.86L403.085 443.859C400.816 433.726 400.348 423.615 400.659 413.609L400.679 412.949L400.039 413.108C389.219 415.789 379.15 421.848 371.639 431.505L372.034 431.812L371.639 431.505C352.419 456.24 355.657 492.822 378.893 513.095L378.894 513.095C391.717 524.257 393.038 543.691 381.908 556.482C375.82 563.463 367.304 567.029 358.691 567.029C351.525 567.029 344.331 564.539 338.519 559.465L338.518 559.464C324.493 547.273 314.472 531.999 307.685 515.495L307.528 515.116L307.125 515.195C281.296 520.285 258.455 536.124 244.288 560.781L244.722 561.03L244.288 560.781C230.715 584.424 228.031 613.59 234.364 640.45C240.697 667.309 256.058 691.915 278.639 706.419C292.908 715.614 297.058 734.648 287.864 748.915L287.864 748.916C281.99 758.079 272.09 763.061 261.972 763.061C256.282 763.061 250.503 761.492 245.368 758.172L245.367 758.171C172.001 711.005 147.099 606.582 190.968 530.154C214.456 489.282 254.33 461.715 298.652 453.866L299.017 453.802L299.061 453.434C301.614 432.202 309.364 411.414 323.117 393.712C346.762 363.377 383.474 347.854 420.028 350.56L420.321 350.582L420.483 350.336C435.89 326.867 459.008 308.795 487.465 301.704C489.016 301.326 490.556 301.093 492.118 300.856C492.996 300.723 493.881 300.589 494.778 300.428L495.134 300.364L495.185 300.007C506.403 221.854 570.431 161.562 648.159 161.562C731.929 161.562 799.98 231.479 802.909 318.454L802.918 318.709L803.129 318.851C834.431 340.011 855.252 376.574 855.252 418.25C855.25 435.224 841.473 449 824.5 449C807.526 449 793.75 435.224 793.75 418.25C793.75 386.798 770.317 361.125 741.469 361.125C712.589 361.125 689.189 386.798 689.189 418.25C689.189 435.224 675.413 449 658.439 449C641.435 449 627.689 435.224 627.689 418.25C627.689 353.974 677.084 301.772 738.298 299.969ZM382.285 556.811C393.597 543.812 392.253 524.061 379.222 512.718L338.19 559.842C344.097 564.998 351.409 567.529 358.691 567.529C367.442 567.529 376.098 563.905 382.285 556.811ZM596.24 752.49L564.99 783.74C558.994 789.736 551.123 792.75 543.25 792.75C535.378 792.75 527.505 789.736 521.509 783.74C509.486 771.717 509.486 752.283 521.509 740.26L552.758 709.01C564.781 696.987 584.215 696.987 596.238 709.01C608.264 721.033 608.264 740.467 596.24 752.49ZM627.491 596.24L596.241 627.489C590.245 633.486 582.374 636.5 574.5 636.5C566.628 636.5 558.756 633.486 552.76 627.489C540.737 615.466 540.737 596.032 552.76 584.009L584.009 552.76C596.032 540.737 615.466 540.737 627.489 552.76C639.514 564.783 639.514 584.217 627.491 596.24ZM783.74 627.491L752.49 658.74C746.494 664.737 738.623 667.75 730.75 667.75C722.878 667.75 715.005 664.737 709.009 658.74C696.986 646.717 696.986 627.283 709.009 615.26L740.258 584.011C752.281 571.988 771.715 571.988 783.738 584.011C795.764 596.034 795.764 615.466 783.74 627.491Z" stroke="black"/>
</g>
</g>
<defs>
<filter id="filter0_b_10_2" x="-1610" y="-1610" width="4244" height="4244" filterUnits="userSpaceOnUse" color-interpolation-filters="sRGB">
<feFlood flood-opacity="0" result="BackgroundImageFix"/>
<feGaussianBlur in="BackgroundImageFix" stdDeviation="561"/>
<feComposite in2="SourceAlpha" operator="in" result="effect1_backgroundBlur_10_2"/>
<feBlend mode="normal" in="SourceGraphic" in2="effect1_backgroundBlur_10_2" result="shape"/>
</filter>
<filter id="filter1_d_10_2" x="133" y="137" width="758" height="758" filterUnits="userSpaceOnUse" color-interpolation-filters="sRGB">
<feFlood flood-opacity="0" result="BackgroundImageFix"/>
<feColorMatrix in="SourceAlpha" type="matrix" values="0 0 0 0 0 0 0 0 0 0 0 0 0 0 0 0 0 0 127 0" result="hardAlpha"/>
<feOffset dy="4"/>
<feGaussianBlur stdDeviation="2"/>
<feComposite in2="hardAlpha" operator="out"/>
<feColorMatrix type="matrix" values="0 0 0 0 0 0 0 0 0 0 0 0 0 0 0 0 0 0 0.25 0"/>
<feBlend mode="normal" in2="BackgroundImageFix" result="effect1_dropShadow_10_2"/>
<feBlend mode="normal" in="SourceGraphic" in2="effect1_dropShadow_10_2" result="shape"/>
</filter>
<linearGradient id="paint0_linear_10_2" x1="512" y1="-488" x2="512" y2="1512" gradientUnits="userSpaceOnUse">
<stop stop-color="#23074D"/>
<stop offset="0.0001" stop-color="#5110B3"/>
</linearGradient>
<linearGradient id="paint1_linear_10_2" x1="512" y1="-488" x2="512" y2="1512" gradientUnits="userSpaceOnUse">
<stop stop-color="#606C88" stop-opacity="0"/>
<stop offset="0.0001" stop-color="#606C88"/>
</linearGradient>
<clipPath id="clip0_10_2">
<rect width="1024" height="1024" fill="white"/>
</clipPath>
</defs>
</svg>
